<?xml version="1.0" encoding="UTF-8" standalone="no"?>
<svg
   width="640"
   height="125"
   version="1.1"
   id="svg1"
   sodipodi:docname="logo.svg"
   inkscape:version="1.4 (e7c3feb100, 2024-10-09)"
   xmlns:inkscape="http://www.inkscape.org/namespaces/inkscape"
   xmlns:sodipodi="http://sodipodi.sourceforge.net/DTD/sodipodi-0.dtd"
   xmlns="http://www.w3.org/2000/svg"
   xmlns:svg="http://www.w3.org/2000/svg">
  <defs
     id="defs1" />
  <sodipodi:namedview
     id="namedview1"
     pagecolor="#505050"
     bordercolor="#eeeeee"
     borderopacity="1"
     inkscape:showpageshadow="0"
     inkscape:pageopacity="0"
     inkscape:pagecheckerboard="0"
     inkscape:deskcolor="#505050"
     showguides="true"
     inkscape:zoom="2.6660135"
     inkscape:cx="286.1951"
     inkscape:cy="125.65578"
     inkscape:window-width="2560"
     inkscape:window-height="1371"
     inkscape:window-x="0"
     inkscape:window-y="0"
     inkscape:window-maximized="1"
     inkscape:current-layer="svg1">
    <sodipodi:guide
       position="44.994907,155.53336"
       orientation="1,0"
       id="guide3"
       inkscape:locked="false" />
    <sodipodi:guide
       position="590.24515,145.58463"
       orientation="1,0"
       id="guide4"
       inkscape:locked="false" />
  </sodipodi:namedview>
  <!-- Created with SVG-edit - https://svgeditor.publicdomainvectors.org/dist/editor/-->
  <g
     class="layer"
     id="g1"
     transform="matrix(1.1133741,0,0,1.1133741,-33.060558,-6.2612463)">
    <path
       d="M 60.267189,100.09216 V 83.952431 c 0,-2.290967 -1.209837,-3.42358 -3.603768,-3.42358 h -7.593654 c -2.393932,0 -3.603768,1.132613 -3.603768,3.42358 v 16.139729 h 4.427486 v -8.031251 h 5.920476 v 8.031251 z M 55.813961,87.942317 h -5.920476 v -1.853366 c 0,-0.514824 0.257412,-0.772236 0.772236,-0.772236 h 4.376004 c 0.514824,0 0.772236,0.257412 0.772236,0.772236 z m 24.53136,16.937713 c 2.34245,0 3.526545,-1.20984 3.526545,-3.57803 V 84.982079 h -10.09055 c -2.393932,0 -3.603768,1.132613 -3.603768,3.449321 v 6.589747 c 0,2.36819 1.184095,3.552285 3.526544,3.552285 h 5.714546 v 1.698918 c 0,0.51483 -0.257412,0.77224 -0.772236,0.77224 h -7.851066 v 3.83544 z M 79.418638,94.532064 h -4.015627 c -0.514824,0 -0.772236,-0.257412 -0.772236,-0.772236 V 90.15606 c 0,-0.540565 0.257412,-0.823718 0.772236,-0.823718 h 4.015627 z m 11.197403,5.560096 v -9.884618 c 0,-0.514824 0.257412,-0.772236 0.772236,-0.772236 h 3.294873 v -4.453227 h -4.993792 c -2.445414,0 -3.552286,1.209836 -3.552286,3.552286 V 100.09216 Z M 105.26276,94.8667 c 0,0.514824 -0.25741,0.772236 -0.77224,0.772236 h -3.26913 c -0.51482,0 -0.77224,-0.283154 -0.77224,-0.823719 v -4.581933 c 0,-0.514824 0.25742,-0.772236 0.77224,-0.772236 h 3.26913 c 0.51483,0 0.77224,0.257412 0.77224,0.772236 z m 0.95242,5.22546 c 2.29097,0 3.44932,-1.184092 3.44932,-3.526541 v -8.005513 c 0,-2.393932 -1.15835,-3.578027 -3.5008,-3.578027 h -6.64123 c -2.342449,0 -3.526544,1.184095 -3.526544,3.552286 v 8.134219 c 0,2.290966 1.209836,3.423576 3.603768,3.423576 z m 15.52195,0 c 2.29097,0 3.44932,-1.184092 3.44932,-3.526541 v -11.58354 h -4.40174 V 94.8667 c 0,0.514824 -0.25742,0.772236 -0.77224,0.772236 h -3.01172 c -0.51482,0 -0.77224,-0.283154 -0.77224,-0.823719 v -9.833138 h -4.45322 v 11.686505 c 0,2.290966 1.20983,3.423576 3.60376,3.423576 z m 15.8566,0 c 2.34245,0 3.52655,-1.184092 3.52655,-3.552282 V 88.4314 c 0,-2.316708 -1.20984,-3.449321 -3.60377,-3.449321 h -10.09055 v 19.897951 h 4.45323 v -4.78787 z m -0.92668,-5.251202 c 0,0.514824 -0.25741,0.772236 -0.77224,0.772236 h -4.01562 v -6.177888 h 4.01562 c 0.51483,0 0.77224,0.283154 0.77224,0.823719 z m 10.06479,-11.094457 c 0.64353,0 0.97817,-0.334635 0.97817,-1.003906 v -1.724661 c 0,-0.669271 -0.33464,-1.003907 -0.97817,-1.003907 h -2.41967 c -0.69502,0 -1.02965,0.334636 -1.02965,1.003907 v 1.724661 c 0,0.669271 0.30889,1.003906 0.92668,1.003906 z m 1.00391,16.345659 V 84.982079 h -4.45323 v 15.110081 z m 15.7536,0 V 88.560106 c 0,-2.393932 -1.15835,-3.578027 -3.5008,-3.578027 h -6.51252 c -2.34245,0 -3.52655,1.184095 -3.52655,3.552286 v 11.557795 h 4.45323 v -9.858876 c 0,-0.514824 0.25741,-0.772236 0.77223,-0.772236 h 3.14043 c 0.51483,0 0.77224,0.257412 0.77224,0.772236 v 9.858876 z m 12.3043,4.78787 c 2.34245,0 3.52654,-1.20984 3.52654,-3.57803 V 84.982079 h -10.09055 c -2.39393,0 -3.60377,1.132613 -3.60377,3.449321 v 6.589747 c 0,2.36819 1.1841,3.552285 3.52655,3.552285 h 5.71454 v 1.698918 c 0,0.51483 -0.25741,0.77224 -0.77223,0.77224 h -7.85107 v 3.83544 z m -0.92669,-10.347966 h -4.01562 c -0.51483,0 -0.77224,-0.257412 -0.77224,-0.772236 V 90.15606 c 0,-0.540565 0.25741,-0.823718 0.77224,-0.823718 h 4.01562 z m 24.66005,5.560096 c 2.34245,0 3.52654,-1.184092 3.52654,-3.552282 V 88.4314 c 0,-2.316708 -1.20984,-3.449321 -3.60377,-3.449321 h -10.09055 v 19.897951 h 4.45323 v -4.78787 z m -0.92669,-5.251202 c 0,0.514824 -0.25741,0.772236 -0.77223,0.772236 h -4.01563 v -6.177888 h 4.01563 c 0.51482,0 0.77223,0.283154 0.77223,0.823719 z m 11.06871,5.251202 V 80.528851 h -4.45323 v 19.563309 z m 11.22315,-4.659154 c 0,0.334636 -0.18019,0.514824 -0.51482,0.514824 h -3.75822 c -0.33463,0 -0.51482,-0.180188 -0.51482,-0.514824 v -1.055389 c 0,-0.334636 0.18019,-0.514824 0.51482,-0.514824 h 3.75822 c 0.33463,0 0.51482,0.180188 0.51482,0.514824 z m 0.97817,4.659154 c 2.31671,0 3.47506,-1.184092 3.47506,-3.552282 v -8.005513 c 0,-2.368191 -1.20984,-3.552286 -3.60377,-3.552286 h -9.47276 v 4.221557 h 7.85107 c 0.51482,0 0.77223,0.257412 0.77223,0.772236 v 1.132612 c -0.23167,-0.102964 -0.51482,-0.180188 -0.84946,-0.180188 h -5.07101 c -2.18801,0 -3.29488,1.158354 -3.29488,3.500803 v 2.239485 c 0,2.290966 1.10687,3.423576 3.29488,3.423576 z m 16.68028,0 v -4.453224 h -5.92048 c -0.51482,0 -0.77223,-0.283154 -0.77223,-0.823719 v -4.581933 c 0,-0.514824 0.25741,-0.772236 0.77223,-0.772236 h 5.869 v -4.478969 h -7.56792 c -2.34244,0 -3.52654,1.184095 -3.52654,3.552286 v 8.134219 c 0,2.290966 1.20984,3.423576 3.60377,3.423576 z m 10.94003,-9.395535 c 0,0.334636 -0.18019,0.514824 -0.51482,0.514824 h -3.75822 c -0.33463,0 -0.51482,-0.180188 -0.51482,-0.514824 v -1.055389 c 0,-0.334636 0.18019,-0.514824 0.51482,-0.514824 h 3.75822 c 0.33463,0 0.51482,0.180188 0.51482,0.514824 z m 3.78396,9.395535 v -4.221554 h -7.79959 c -0.51482,0 -0.77223,-0.257412 -0.77223,-0.772236 v -1.132612 c 0.23167,0.128706 0.51482,0.180188 0.79797,0.180188 h 5.1225 c 2.188,0 3.29488,-1.158354 3.29488,-3.500803 V 88.4314 c 0,-2.290967 -1.10688,-3.449321 -3.29488,-3.449321 h -6.89864 c -2.31671,0 -3.47506,1.184095 -3.47506,3.552286 v 8.005513 c 0,2.36819 1.20984,3.552282 3.60377,3.552282 z m 14.95564,0 V 89.203636 h 3.21765 v -3.706733 h -3.21765 v -0.669271 c 0,-0.695013 0.33464,-1.029648 1.02965,-1.029648 h 2.9345 v -3.655251 h -4.89083 c -2.21375,0 -3.55229,1.261319 -3.55229,3.552286 v 16.397141 z m 13.92602,-5.22546 c 0,0.514824 -0.25741,0.772236 -0.77224,0.772236 h -3.26913 c -0.51482,0 -0.77224,-0.283154 -0.77224,-0.823719 v -4.581933 c 0,-0.514824 0.25742,-0.772236 0.77224,-0.772236 h 3.26913 c 0.51483,0 0.77224,0.257412 0.77224,0.772236 z m 0.95242,5.22546 c 2.29097,0 3.44932,-1.184092 3.44932,-3.526541 v -8.005513 c 0,-2.393932 -1.15835,-3.578027 -3.5008,-3.578027 h -6.64123 c -2.34245,0 -3.52654,1.184095 -3.52654,3.552286 v 8.134219 c 0,2.290966 1.20983,3.423576 3.60376,3.423576 z m 10.09055,0 v -9.884618 c 0,-0.514824 0.25742,-0.772236 0.77224,-0.772236 h 3.29487 v -4.453227 h -4.99379 c -2.44541,0 -3.55228,1.209836 -3.55228,3.552286 v 11.557795 z m 22.21465,-4.659154 c 0,0.334636 -0.18019,0.514824 -0.51483,0.514824 h -3.75821 c -0.33464,0 -0.51483,-0.180188 -0.51483,-0.514824 v -1.055389 c 0,-0.334636 0.18019,-0.514824 0.51483,-0.514824 h 3.75821 c 0.33464,0 0.51483,0.180188 0.51483,0.514824 z m 0.97816,4.659154 c 2.31671,0 3.47506,-1.184092 3.47506,-3.552282 v -8.005513 c 0,-2.368191 -1.20983,-3.552286 -3.60377,-3.552286 h -9.47276 v 4.221557 h 7.85107 c 0.51482,0 0.77224,0.257412 0.77224,0.772236 v 1.132612 c -0.23168,-0.102964 -0.51483,-0.180188 -0.84946,-0.180188 h -5.07102 c -2.188,0 -3.29487,1.158354 -3.29487,3.500803 v 2.239485 c 0,2.290966 1.10687,3.423576 3.29487,3.423576 z m 10.09052,0 V 80.528851 h -4.45323 v 19.563309 z m 6.71845,0 V 80.528851 h -4.45323 v 19.563309 z m 17.96737,0 v -4.453224 h -2.80579 c -0.4376,0 -0.66928,-0.283154 -0.66928,-0.875201 v -5.560099 h 3.50081 v -4.06711 h -3.50081 v -4.350263 h -4.45322 v 15.985285 c 0,2.213744 1.23557,3.320612 3.68099,3.320612 z m 15.26452,0 V 88.534365 c 0,-2.368191 -1.1841,-3.552286 -3.52655,-3.552286 h -5.58584 v -4.453228 h -4.45323 v 19.563309 h 4.45323 V 89.461048 h 3.88692 c 0.51483,0 0.77224,0.257412 0.77224,0.772236 v 9.858876 z m 5.68882,-16.345659 c 0.64353,0 0.97817,-0.334635 0.97817,-1.003906 v -1.724661 c 0,-0.669271 -0.33464,-1.003907 -0.97817,-1.003907 h -2.41967 c -0.69502,0 -1.02965,0.334636 -1.02965,1.003907 v 1.724661 c 0,0.669271 0.30889,1.003906 0.92668,1.003906 z m 1.00391,16.345659 V 84.982079 h -4.45323 v 15.110081 z m 6.74418,0 v -9.884618 c 0,-0.514824 0.25741,-0.772236 0.77224,-0.772236 h 3.29487 v -4.453227 h -4.99379 c -2.44541,0 -3.55229,1.209836 -3.55229,3.552286 v 11.557795 z m 19.07421,0 V 80.528851 h -4.45323 v 4.453228 h -5.71454 c -2.34245,0 -3.52655,1.184095 -3.52655,3.552286 v 8.134219 c 0,2.290966 1.20984,3.423576 3.60377,3.423576 z m -4.45323,-4.453224 h -4.01562 c -0.51483,0 -0.77224,-0.283154 -0.77224,-0.823719 v -4.581933 c 0,-0.514824 0.25741,-0.772236 0.77224,-0.772236 h 4.01562 z m 13.46264,-3.655251 v -3.423579 h -7.38773 v 3.423579 z m 11.78948,8.108475 c 2.34245,0 3.52655,-1.184092 3.52655,-3.552282 V 88.4314 c 0,-2.316708 -1.20984,-3.449321 -3.60377,-3.449321 h -10.09055 v 19.897951 h 4.45323 v -4.78787 z m -0.92668,-5.251202 c 0,0.514824 -0.25741,0.772236 -0.77224,0.772236 h -4.01562 v -6.177888 h 4.01562 c 0.51483,0 0.77224,0.283154 0.77224,0.823719 z m 15.57341,0.592048 c 0,0.334636 -0.18018,0.514824 -0.51482,0.514824 h -3.75821 c -0.33464,0 -0.51483,-0.180188 -0.51483,-0.514824 v -1.055389 c 0,-0.334636 0.18019,-0.514824 0.51483,-0.514824 h 3.75821 c 0.33464,0 0.51482,0.180188 0.51482,0.514824 z m 0.97817,4.659154 c 2.31671,0 3.47506,-1.184092 3.47506,-3.552282 v -8.005513 c 0,-2.368191 -1.20983,-3.552286 -3.60377,-3.552286 h -9.47276 v 4.221557 h 7.85107 c 0.51482,0 0.77223,0.257412 0.77223,0.772236 v 1.132612 c -0.23167,-0.102964 -0.51482,-0.180188 -0.84946,-0.180188 h -5.07101 c -2.188,0 -3.29487,1.158354 -3.29487,3.500803 v 2.239485 c 0,2.290966 1.10687,3.423576 3.29487,3.423576 z m 10.11626,0 v -9.884618 c 0,-0.514824 0.25741,-0.772236 0.77224,-0.772236 h 3.29487 v -4.453227 h -4.99379 c -2.44542,0 -3.55229,1.209836 -3.55229,3.552286 v 11.557795 z m 13.41114,0 v -4.453224 h -2.80579 c -0.4376,0 -0.66927,-0.283154 -0.66927,-0.875201 v -5.560099 h 3.5008 v -4.06711 h -3.5008 v -4.350263 h -4.45323 v 15.985285 c 0,2.213744 1.23558,3.320612 3.681,3.320612 z m 8.75203,4.78787 7.72236,-19.897951 h -4.83934 l -3.08895,9.035161 -3.08894,-9.035161 h -4.81361 l 5.5601,14.15766 -2.26522,5.740291 z m 36.99009,-4.78787 V 88.560106 c 0,-2.393932 -1.15836,-3.578027 -3.50081,-3.578027 h -13.28245 c -2.34245,0 -3.52655,1.184095 -3.52655,3.552286 v 11.557795 h 4.40175 v -9.858876 c 0,-0.514824 0.25741,-0.772236 0.77223,-0.772236 h 2.78005 v 10.631112 h 4.40175 V 89.461048 h 2.83153 c 0.48908,0 0.77223,0.257412 0.77223,0.772236 v 9.858876 z m 11.40337,-5.22546 c 0,0.514824 -0.25741,0.772236 -0.77223,0.772236 h -3.26913 c -0.51483,0 -0.77224,-0.283154 -0.77224,-0.823719 v -4.581933 c 0,-0.514824 0.25741,-0.772236 0.77224,-0.772236 h 3.26913 c 0.51482,0 0.77223,0.257412 0.77223,0.772236 z m 0.95243,5.22546 c 2.29096,0 3.44932,-1.184092 3.44932,-3.526541 v -8.005513 c 0,-2.393932 -1.15836,-3.578027 -3.5008,-3.578027 h -6.64123 c -2.34245,0 -3.52655,1.184095 -3.52655,3.552286 v 8.134219 c 0,2.290966 1.20984,3.423576 3.60377,3.423576 z m 19.20293,0 V 80.528851 h -4.45322 v 4.453228 h -5.71455 c -2.34245,0 -3.52654,1.184095 -3.52654,3.552286 v 8.134219 c 0,2.290966 1.20983,3.423576 3.60376,3.423576 z m -4.45322,-4.453224 h -4.01563 c -0.51482,0 -0.77224,-0.283154 -0.77224,-0.823719 v -4.581933 c 0,-0.514824 0.25742,-0.772236 0.77224,-0.772236 h 4.01563 z m 16.6288,4.453224 c 2.29097,0 3.44932,-1.184092 3.44932,-3.526541 v -11.58354 h -4.40174 V 94.8667 c 0,0.514824 -0.25742,0.772236 -0.77224,0.772236 h -3.01172 c -0.51482,0 -0.77224,-0.283154 -0.77224,-0.823719 v -9.833138 h -4.45322 v 11.686505 c 0,2.290966 1.20983,3.423576 3.60376,3.423576 z m 10.14205,0 V 80.528851 h -4.45323 v 19.563309 z m 11.40337,-9.395535 c 0,0.334636 -0.18019,0.514824 -0.51482,0.514824 h -3.75822 c -0.33463,0 -0.51482,-0.180188 -0.51482,-0.514824 v -1.055389 c 0,-0.334636 0.18019,-0.514824 0.51482,-0.514824 h 3.75822 c 0.33463,0 0.51482,0.180188 0.51482,0.514824 z m 3.78396,9.395535 v -4.221554 h -7.79959 c -0.51482,0 -0.77223,-0.257412 -0.77223,-0.772236 v -1.132612 c 0.23167,0.128706 0.51482,0.180188 0.79798,0.180188 h 5.12249 c 2.18801,0 3.29488,-1.158354 3.29488,-3.500803 V 88.4314 c 0,-2.290967 -1.10687,-3.449321 -3.29488,-3.449321 h -6.89864 c -2.3167,0 -3.47506,1.184095 -3.47506,3.552286 v 8.005513 c 0,2.36819 1.20984,3.552282 3.60377,3.552282 z m 13.02501,0 c 2.13652,0 3.19191,-1.184092 3.19191,-3.552282 v -2.34245 c 0,-2.16226 -1.05539,-3.243391 -3.19191,-3.243391 h -5.66306 c -0.28315,0 -0.4376,-0.128706 -0.4376,-0.411859 v -0.900942 c 0,-0.308894 0.15445,-0.463341 0.4376,-0.463341 h 8.44311 v -4.195816 h -9.73017 c -2.34245,0 -3.5008,1.184095 -3.5008,3.526544 v 2.290967 c 0,2.265226 0.72075,3.294874 3.0632,3.294874 h 5.63732 c 0.28316,0 0.4376,0.128706 0.4376,0.411859 v 0.900942 c 0,0.308894 -0.15444,0.463341 -0.4376,0.463341 h -8.52033 v 4.221554 z"
       id="text4"
       style="font-weight:900;font-size:25.7412px;line-height:0;font-family:Kimberley;-inkscape-font-specification:'Kimberley Heavy';letter-spacing:0px;fill:#ffffff;stroke-width:0"
       aria-label="A grouping place for all third-party modules" />
    <title
       id="title1">Layer 1</title>
    <path
       id="rect4"
       style="fill:#ffffff;stroke-width:0"
       d="M 44.635933,74.017639 H 590.3946 v 3.750919 H 44.635933 Z" />
    <path
       d="M 63.979677,61.491692 V 30.38634 h 9.512006 V 19.945001 H 45.065 V 30.38634 h 9.512005 v 31.105352 z m 20.663947,0 V 40.499679 c 0,-1.093334 0.546667,-1.640001 1.640001,-1.640001 h 6.997338 V 29.40234 h -10.60534 c -5.193336,0 -7.544004,2.569334 -7.544004,7.544004 V 61.491692 Z M 111.81294,71.659698 128.21295,29.40234 h -10.27734 l -6.56001,19.188011 -6.56,-19.188011 H 94.592928 l 11.808012,30.066684 -4.81067,12.190674 z m 35.86134,-10.168006 v -9.457339 h -5.95867 c -0.92933,0 -1.42133,-0.601334 -1.42133,-1.858668 V 38.367678 h 7.43467 V 29.73034 h -7.43467 v -9.238672 h -9.45734 v 33.948019 c 0,4.701337 2.624,7.052005 7.81734,7.052005 z m 23.06938,-11.09734 c 0,1.093334 -0.54667,1.640001 -1.64001,1.640001 h -6.94267 c -1.09333,0 -1.64,-0.601334 -1.64,-1.749335 v -9.730672 c 0,-1.093334 0.54667,-1.640001 1.64,-1.640001 h 6.94267 c 1.09334,0 1.64001,0.546667 1.64001,1.640001 z m 2.02266,11.09734 c 4.86534,0 7.32534,-2.514669 7.32534,-7.489338 V 37.001011 c 0,-5.084003 -2.46,-7.598671 -7.43467,-7.598671 h -14.10401 c -4.97467,0 -7.48934,2.514668 -7.48934,7.544004 v 17.274677 c 0,4.865336 2.56934,7.270671 7.65334,7.270671 z m 40.5627,0 V 37.001011 c 0,-5.084003 -2.46,-7.598671 -7.43467,-7.598671 h -13.83068 c -4.97466,0 -7.48933,2.514668 -7.48933,7.544004 v 24.545348 h 9.45734 V 40.554346 c 0,-1.093334 0.54666,-1.640001 1.64,-1.640001 h 6.66933 c 1.09334,0 1.64,0.546667 1.64,1.640001 v 20.937346 z m 62.10138,0 V 19.945001 h -13.22934 l -7.10667,27.388016 -7.32534,-27.388016 h -13.17467 v 41.546691 h 9.78533 V 40.281013 l 5.95868,21.210679 h 9.56667 l 5.904,-21.210679 v 21.210679 z m 24.27206,-11.09734 c 0,1.093334 -0.54666,1.640001 -1.64,1.640001 h -6.94267 c -1.09333,0 -1.64,-0.601334 -1.64,-1.749335 v -9.730672 c 0,-1.093334 0.54667,-1.640001 1.64,-1.640001 h 6.94267 c 1.09334,0 1.64,0.546667 1.64,1.640001 z m 2.02267,11.09734 c 4.86534,0 7.32534,-2.514669 7.32534,-7.489338 V 37.001011 c 0,-5.084003 -2.46,-7.598671 -7.43467,-7.598671 h -14.10401 c -4.97467,0 -7.48934,2.514668 -7.48934,7.544004 v 17.274677 c 0,4.865336 2.56934,7.270671 7.65334,7.270671 z m 40.78136,0 V 19.945001 h -9.45734 v 9.457339 h -12.13601 c -4.97467,0 -7.48934,2.514668 -7.48934,7.544004 v 17.274677 c 0,4.865336 2.56934,7.270671 7.65334,7.270671 z m -9.45734,-9.457339 h -8.52801 c -1.09333,0 -1.64,-0.601334 -1.64,-1.749335 v -9.730672 c 0,-1.093334 0.54667,-1.640001 1.64,-1.640001 h 8.52801 z m 35.31465,9.457339 c 4.86534,0 7.32534,-2.514669 7.32534,-7.489338 V 29.40234 h -9.34801 v 20.992012 c 0,1.093334 -0.54666,1.640001 -1.64,1.640001 h -6.396 c -1.09333,0 -1.64,-0.601334 -1.64,-1.749335 V 29.40234 h -9.45734 v 24.818681 c 0,4.865336 2.56934,7.270671 7.65334,7.270671 z m 21.53871,0 V 19.945001 h -9.45733 v 41.546691 z m 24.21735,-19.953345 c 0,0.710667 -0.38267,1.093334 -1.09334,1.093334 h -7.98133 c -0.71067,0 -1.09334,-0.382667 -1.09334,-1.093334 v -2.241335 c 0,-0.710667 0.38267,-1.093334 1.09334,-1.093334 h 7.98133 c 0.71067,0 1.09334,0.382667 1.09334,1.093334 z m 8.036,19.953345 v -8.965339 h -16.56401 c -1.09333,0 -1.64,-0.546667 -1.64,-1.640001 v -2.405335 c 0.492,0.273334 1.09334,0.382667 1.69467,0.382667 h 10.87867 c 4.64667,0 6.99734,-2.460001 6.99734,-7.434671 v -4.701336 c 0,-4.865336 -2.35067,-7.325337 -6.99734,-7.325337 h -14.65067 c -4.92,0 -7.38001,2.514668 -7.38001,7.544004 v 17.001343 c 0,5.029336 2.56934,7.544005 7.65334,7.544005 z m 31.70671,0 V 19.945001 h -9.45734 v 41.546691 z m 33.45598,0 V 37.001011 c 0,-5.084003 -2.46,-7.598671 -7.43467,-7.598671 h -13.83067 c -4.97467,0 -7.48934,2.514668 -7.48934,7.544004 v 24.545348 h 9.45734 V 40.554346 c 0,-1.093334 0.54667,-1.640001 1.64,-1.640001 h 6.66934 c 1.09333,0 1.64,0.546667 1.64,1.640001 v 20.937346 z m 33.62004,0 V 19.945001 h -9.45734 v 9.457339 h -12.13601 c -4.97467,0 -7.48934,2.514668 -7.48934,7.544004 v 17.274677 c 0,4.865336 2.56934,7.270671 7.65334,7.270671 z m -9.45734,-9.457339 h -8.52801 c -1.09333,0 -1.64,-0.601334 -1.64,-1.749335 v -9.730672 c 0,-1.093334 0.54667,-1.640001 1.64,-1.640001 h 8.52801 z M 545.1559,41.538347 c 0,0.710667 -0.38267,1.093334 -1.09333,1.093334 h -7.98134 c -0.71067,0 -1.09334,-0.382667 -1.09334,-1.093334 v -2.241335 c 0,-0.710667 0.38267,-1.093334 1.09334,-1.093334 h 7.98134 c 0.71066,0 1.09333,0.382667 1.09333,1.093334 z m 8.036,19.953345 v -8.965339 h -16.564 c -1.09334,0 -1.64001,-0.546667 -1.64001,-1.640001 v -2.405335 c 0.492,0.273334 1.09334,0.382667 1.69467,0.382667 h 10.87867 c 4.64667,0 6.99734,-2.460001 6.99734,-7.434671 v -4.701336 c 0,-4.865336 -2.35067,-7.325337 -6.99734,-7.325337 h -14.65067 c -4.92,0 -7.38,2.514668 -7.38,7.544004 v 17.001343 c 0,5.029336 2.56933,7.544005 7.65333,7.544005 z m 37.33736,0 -11.48,-16.40001 11.04267,-15.689342 h -11.42534 l -5.35734,8.637338 -5.576,-8.637338 h -11.86267 l 11.09734,15.689342 -11.26134,16.40001 h 11.75334 l 5.52133,-8.910672 5.74001,8.910672 z"
       id="text3"
       style="font-weight:900;font-size:54.6667px;line-height:0;font-family:Kimberley;-inkscape-font-specification:'Kimberley Heavy';letter-spacing:0px;fill:#ffffff;stroke-width:0"
       aria-label="Tryton Module Index" />
  </g>
</svg>
